<?xml version="1.0" encoding="UTF-8"?>
<svg width="106px" height="64px" viewBox="0 0 106 64" version="1.1" xmlns="http://www.w3.org/2000/svg" xmlns:xlink="http://www.w3.org/1999/xlink">
    <!-- Generator: Sketch 46.1 (44463) - http://www.bohemiancoding.com/sketch -->
    <title>Artboard</title>
    <desc>Created with Sketch.</desc>
    <defs></defs>
    <g id="Page-1" stroke="none" stroke-width="1" fill="none" fill-rule="evenodd">
        <g id="Artboard" fill="#FFFFFF">
            <path d="M23.335,46.105 L23.2675,46.3075 C23.2524999,46.3525002 23.2300001,46.3899999 23.2,46.42 C23.2300001,46.4500002 23.2150003,46.4949997 23.155,46.555 L23.065,46.6 L23.11,46.645 L22.975,46.735 L22.885,46.825 C22.885,46.8550002 22.8999999,46.87 22.93,46.87 L22.75,47.095 C21.9399959,47.4850019 21.130004,47.68 20.32,47.68 C19.2699947,47.68 18.4000034,47.3200036 17.71,46.6 L17.62,46.555 C17.5299995,46.4649995 17.4550003,46.3600006 17.395,46.24 C17.3349997,46.1199994 17.305,46.0150004 17.305,45.925 C17.2749998,45.925 17.2300003,45.8500007 17.17,45.7 L17.035,45.43 L17.035,45.385 L16.945,44.71 C16.8849997,44.319998 16.8250003,43.9750015 16.765,43.675 C16.7049997,43.3749985 16.6600001,43.120001 16.63,42.91 L16.63,42.64 C16.63,42.249998 16.6150001,41.9950006 16.585,41.875 L16.405,40.615 L16.27,39.175 C16.0899991,38.0349943 16,37.060004 16,36.25 L16,32.695 L16.045,32.335 C16.0149998,32.2449995 16,32.1400006 16,32.02 C16,31.8399991 16.0149998,31.6900006 16.045,31.57 L16.09,31.39 L16.09,30.85 C16.0599998,30.7899997 16.0524999,30.7225004 16.0675,30.6475 C16.0825001,30.5724996 16.0750001,30.5050003 16.045,30.445 L16.045,30.265 C16.045,30.1449994 16.0599998,30.0700001 16.09,30.04 L16.09,29.905 L16.18,29.095 L16.18,28.15 L16.135,28.15 L16.18,27.655 C16.2100001,27.4149988 16.2474998,26.9575034 16.2925,26.2825 C16.3375002,25.6074966 16.3899997,24.7450052 16.45,23.695 C16.45,23.1849975 16.4649998,22.7800015 16.495,22.48 L16.585,21.715 L16.63,21.04 L16.585,20.905 C16.6150001,20.8749999 16.63,20.8375002 16.63,20.7925 C16.63,20.7474998 16.6449998,20.7100001 16.675,20.68 C16.7050001,20.6499999 16.7125001,20.6275001 16.6975,20.6125 C16.6824999,20.5974999 16.675,20.5750001 16.675,20.545 C16.7050001,20.2149984 16.7649995,19.8175023 16.855,19.3525 C16.9450004,18.8874977 17.0049998,18.550001 17.035,18.34 C17.0650001,18.2199994 17.0874999,18.062501 17.1025,17.8675 C17.1175001,17.672499 17.1399998,17.5150006 17.17,17.395 L17.53,16.45 L17.575,16.36 L17.575,16.315 L17.62,16.315 L17.62,16.27 C17.62,16.2099997 17.6499997,16.18 17.71,16.18 L17.755,16.18 C17.8150003,16.1499999 17.8674998,16.135 17.9125,16.135 C17.9575002,16.135 17.98,16.1200001 17.98,16.09 L18.025,16 C18.1450006,16 18.2799992,16.0149999 18.43,16.045 C18.5800007,16.0750002 18.6849997,16.1049998 18.745,16.135 L19.105,16.315 L19.195,16.315 L19.285,16.405 L19.33,16.495 C19.4500006,16.5250001 19.6599985,16.6599988 19.96,16.9 C20.0200003,16.9600003 20.0350001,17.0349996 20.005,17.125 C20.0350001,17.3950013 20.0350001,17.8149971 20.005,18.385 C19.9749998,18.9550028 19.9150005,19.5249972 19.825,20.095 C19.7349995,20.7850035 19.6600003,21.5199961 19.6,22.3 L19.555,23.065 C19.555,25.7950137 19.4950006,27.2199994 19.375,27.34 C19.3449998,27.3700002 19.33,27.4449994 19.33,27.565 L19.33,27.835 C19.33,27.9550006 19.3449998,28.0449997 19.375,28.105 L19.375,28.285 L19.33,35.17 C19.3600001,35.3500009 19.375,35.7249972 19.375,36.295 C19.375,37.0750039 19.3675001,37.6074986 19.3525,37.8925 C19.3374999,38.1775014 19.33,38.3499997 19.33,38.41 C19.3600001,38.4400001 19.375,38.5299992 19.375,38.68 C19.4350003,38.7700004 19.465,38.8899992 19.465,39.04 L19.555,39.175 C19.6450004,39.8050031 19.69,40.2399988 19.69,40.48 C19.69,40.6600009 19.6750001,40.7649999 19.645,40.795 C19.5849997,40.8850004 19.5849997,41.0049992 19.645,41.155 L19.78,41.29 C19.78,41.5600014 19.7949998,41.7999989 19.825,42.01 C19.8550001,42.1300006 19.8849998,42.2574993 19.915,42.3925 C19.9450001,42.5275007 19.9450001,42.6249997 19.915,42.685 L19.87,43.045 C19.8399998,43.0149999 19.8100001,43.0149999 19.78,43.045 C19.990001,43.255001 20.1099998,43.5549981 20.14,43.945 C20.1700001,44.4550025 20.2749991,44.9649974 20.455,45.475 L20.5,45.61 L20.5,45.7 C20.5,45.7300001 20.5149998,45.745 20.545,45.745 L20.59,45.835 L20.545,46.06 L20.455,46.375 C20.4249998,46.4050001 20.4174999,46.4274999 20.4325,46.4425 C20.4475001,46.4575001 20.455,46.4799998 20.455,46.51 L20.5,46.555 L20.59,46.555 C20.7700009,46.555 20.8899997,46.4050015 20.95,46.105 C21.0100003,45.9249991 21.0549998,45.8200001 21.085,45.79 L21.355,45.295 L21.49,45.07 L21.58,44.89 C21.58,44.8599999 21.6999988,44.8899995 21.94,44.98 L22.03,44.845 C22.03,44.8149998 22.0449998,44.7700003 22.075,44.71 C22.1050001,44.6499997 22.1349998,44.6349998 22.165,44.665 L22.66,44.8 C23.0800021,44.9500007 23.3499994,45.1299989 23.47,45.34 C23.47,45.5800012 23.4250004,45.8349986 23.335,46.105 Z M37.555,47.815 L37.33,47.725 L37.24,47.635 L37.24,47.59 L37.195,47.635 L37.15,47.545 L37.15,47.5 L37.15,47.545 L37.105,47.545 L37.06,47.455 C36.6999982,47.0349979 36.4150011,46.4350039 36.205,45.655 C35.7549978,46.255003 35.3350019,46.6599989 34.945,46.87 C34.7349989,47.0500009 34.4650016,47.1849995 34.135,47.275 C33.3849963,47.4850011 32.7550026,47.6049999 32.245,47.635 L31.975,47.635 C31.7649989,47.635 31.5100015,47.6050003 31.21,47.545 C30.2799953,47.334999 29.5525026,47.1100012 29.0275,46.87 C28.5024974,46.6299988 28.0150022,46.2025031 27.565,45.5875 C27.1149977,44.9724969 26.6950019,44.0500062 26.305,42.82 C25.9449982,41.6799943 25.6900007,40.1650095 25.54,38.275 L25.54,37.825 C25.5099998,37.7049994 25.495,37.540001 25.495,37.33 C25.495,37.119999 25.5099998,36.9400008 25.54,36.79 L25.585,36.475 L25.675,35.125 C25.675,35.0349996 25.6899998,34.9600003 25.72,34.9 L25.765,34.72 C25.9450009,33.8199955 26.1099992,33.1300024 26.26,32.65 L26.17,32.65 L26.44,32.065 C27.4900052,29.7249883 28.509995,28.1650039 29.5,27.385 C29.710001,27.2049991 30.1599965,26.9800014 30.85,26.71 L30.985,26.62 C30.9549999,26.62 31.0899985,26.5900003 31.39,26.53 C31.6900015,26.4699997 32.1099973,26.44 32.65,26.44 C33.8800061,26.44 34.8699962,26.8149963 35.62,27.565 C35.8000009,27.7150008 36.1299976,28.1049969 36.61,28.735 L37.06,29.365 L37.33,29.365 C37.5400011,29.365 37.6599998,29.3799999 37.69,29.41 C37.7500003,29.41 37.8174996,29.4324998 37.8925,29.4775 C37.9675004,29.5225002 38.0349997,29.5599999 38.095,29.59 L38.14,29.59 L38.275,29.635 C38.275,29.6650002 38.2899999,29.68 38.32,29.68 L38.95,29.995 L39.04,30.175 L39.085,30.625 C39.085,31.015002 39.0400004,31.3899982 38.95,31.75 L38.86,32.47 C38.7999997,32.5300003 38.7999997,32.6349992 38.86,32.785 L38.86,33.145 C38.8299999,33.3550011 38.8000001,33.6474981 38.77,34.0225 C38.7399998,34.3975019 38.7399998,34.7199987 38.77,34.99 L38.77,35.08 C38.7399998,35.1100001 38.725,35.1549997 38.725,35.215 C38.725,35.2750003 38.7399998,35.3199999 38.77,35.35 L38.77,35.44 C38.8000001,35.6200009 38.815,36.0999961 38.815,36.88 C38.7849998,37.3600024 38.77,37.8549975 38.77,38.365 L38.77,38.635 C38.77,38.9650016 38.7550001,39.2199991 38.725,39.4 C38.6949999,39.5200006 38.68,39.6549992 38.68,39.805 L38.77,40.03 L38.86,40.21 C38.9200003,40.3900009 38.95,40.5999988 38.95,40.84 L38.86,41.02 C38.8299999,41.0500001 38.815,41.0799999 38.815,41.11 L38.815,41.155 L38.905,41.245 L38.905,41.56 C38.905,41.770001 38.9199998,41.9199996 38.95,42.01 L38.905,42.235 L38.77,42.235 C38.8900006,42.3250004 38.95,42.5199985 38.95,42.82 L38.95,43.18 C38.95,43.5100016 38.9949995,43.8099987 39.085,44.08 L39.085,44.215 C39.085,44.2750003 39.0999998,44.3199998 39.13,44.35 L39.1975,44.485 C39.2125001,44.5150001 39.22,44.5599997 39.22,44.62 L39.175,44.8 C39.2350003,45.0400012 39.2949997,45.2199994 39.355,45.34 L39.445,45.43 C39.445,45.5200005 39.4899995,45.5799999 39.58,45.61 L39.67,45.655 C39.7600004,45.8050007 39.7900001,46.074998 39.76,46.465 C39.76,46.675001 39.7450001,46.7949999 39.715,46.825 C39.6849998,46.8550002 39.67,46.8999997 39.67,46.96 L39.31,47.185 L39.22,47.32 L39.175,47.455 C39.0849995,47.455 38.9650008,47.4999996 38.815,47.59 C38.4849983,47.7700009 38.1700015,47.8749999 37.87,47.905 C37.8099997,47.9650003 37.7050007,47.9350006 37.555,47.815 Z M35.755,32.83 L35.8,32.47 C35.8300002,32.3799996 35.845,32.2750006 35.845,32.155 L35.8,32.11 C35.8,32.0499997 35.8149998,32.0050002 35.845,31.975 L35.845,31.885 L35.98,31.3 C35.4399973,30.9099981 34.9750019,30.520002 34.585,30.13 C33.8649964,29.0799948 33.3700013,28.3975016 33.1,28.0825 C32.8299986,27.7674984 32.5450015,27.61 32.245,27.61 C31.9749986,27.61 31.6900015,27.714999 31.39,27.925 C31.2399992,28.0450006 31.0150015,28.3449976 30.715,28.825 C30.114997,29.9350056 29.6500016,31.1049939 29.32,32.335 L29.275,32.56 C29.2149997,32.6800006 29.185,32.7699997 29.185,32.83 L29.14,33.325 C28.9899992,34.525006 28.915,35.8299929 28.915,37.24 C28.915,38.7100074 29.0199989,39.9249952 29.23,40.885 L29.545,42.01 L29.815,43.045 L30.22,44.62 L30.22,44.8 C30.2800003,44.9200006 30.5349978,45.1449984 30.985,45.475 L31.21,45.7 C31.2700003,45.8200006 31.3449995,45.9099997 31.435,45.97 L31.525,46.015 C31.8550016,46.225001 32.1699985,46.3599997 32.47,46.42 L32.695,46.42 L32.695,46.465 L33.28,46.015 C33.6700019,45.414997 33.9549991,44.8000032 34.135,44.17 C34.1650001,44.1099997 34.2024998,44.0275005 34.2475,43.9225 C34.2925002,43.8174995 34.315,43.7350003 34.315,43.675 C34.3450002,43.6449998 34.36,43.5850005 34.36,43.495 C34.36,43.3749994 34.3749999,43.2850003 34.405,43.225 C34.4350001,43.1949998 34.4799997,43.075001 34.54,42.865 C34.6000003,42.6549989 34.6449998,42.5350001 34.675,42.505 C34.8550009,41.7249961 34.9749997,41.140002 35.035,40.75 C35.035,40.6299994 35.0499998,40.5400003 35.08,40.48 L35.08,39.985 C35.1400003,39.8349993 35.1400003,39.6700009 35.08,39.49 L35.035,39.13 C35.0950003,38.2599957 35.2149991,37.3150051 35.395,36.295 L35.53,35.44 L35.62,34.54 L35.71,33.82 C35.7400002,33.6399991 35.755,33.3100024 35.755,32.83 Z M54.97,47.815 L54.745,47.725 L54.655,47.635 L54.655,47.59 L54.61,47.635 L54.565,47.545 L54.565,47.5 L54.565,47.545 L54.52,47.545 L54.475,47.455 C54.1149982,47.0349979 53.830001,46.4350039 53.62,45.655 C53.1699977,46.255003 52.7500019,46.6599989 52.36,46.87 C52.1499989,47.0500009 51.8800016,47.1849995 51.55,47.275 C50.7999962,47.4850011 50.1700025,47.6049999 49.66,47.635 L49.39,47.635 C49.1799989,47.635 48.9250015,47.6050003 48.625,47.545 C47.6949953,47.334999 46.9675026,47.1100012 46.4425,46.87 C45.9174974,46.6299988 45.4300022,46.2025031 44.98,45.5875 C44.5299977,44.9724969 44.1100019,44.0500062 43.72,42.82 C43.3599982,41.6799943 43.1050007,40.1650095 42.955,38.275 L42.955,37.825 C42.9249998,37.7049994 42.91,37.540001 42.91,37.33 C42.91,37.119999 42.9249998,36.9400008 42.955,36.79 L43,36.475 L43.09,35.125 C43.09,35.0349996 43.1049998,34.9600003 43.135,34.9 L43.18,34.72 C43.3600009,33.8199955 43.5249992,33.1300024 43.675,32.65 L43.585,32.65 L43.855,32.065 C44.9050052,29.7249883 45.924995,28.1650039 46.915,27.385 C47.125001,27.2049991 47.5749965,26.9800014 48.265,26.71 L48.4,26.62 C48.3699998,26.62 48.5049985,26.5900003 48.805,26.53 C49.1050015,26.4699997 49.5249973,26.44 50.065,26.44 C51.2950061,26.44 52.2849962,26.8149963 53.035,27.565 C53.2150009,27.7150008 53.5449976,28.1049969 54.025,28.735 L54.475,29.365 L54.745,29.365 C54.955001,29.365 55.0749998,29.3799999 55.105,29.41 C55.1650003,29.41 55.2324996,29.4324998 55.3075,29.4775 C55.3825004,29.5225002 55.4499997,29.5599999 55.51,29.59 L55.555,29.59 L55.69,29.635 C55.69,29.6650002 55.7049998,29.68 55.735,29.68 L56.365,29.995 L56.455,30.175 L56.5,30.625 C56.5,31.015002 56.4550004,31.3899982 56.365,31.75 L56.275,32.47 C56.2149997,32.5300003 56.2149997,32.6349992 56.275,32.785 L56.275,33.145 C56.2449998,33.3550011 56.2150001,33.6474981 56.185,34.0225 C56.1549998,34.3975019 56.1549998,34.7199987 56.185,34.99 L56.185,35.08 C56.1549998,35.1100001 56.14,35.1549997 56.14,35.215 C56.14,35.2750003 56.1549998,35.3199999 56.185,35.35 L56.185,35.44 C56.2150001,35.6200009 56.23,36.0999961 56.23,36.88 C56.1999998,37.3600024 56.185,37.8549975 56.185,38.365 L56.185,38.635 C56.185,38.9650016 56.1700001,39.2199991 56.14,39.4 C56.1099998,39.5200006 56.095,39.6549992 56.095,39.805 L56.185,40.03 L56.275,40.21 C56.3350003,40.3900009 56.365,40.5999988 56.365,40.84 L56.275,41.02 C56.2449998,41.0500001 56.23,41.0799999 56.23,41.11 L56.23,41.155 L56.32,41.245 L56.32,41.56 C56.32,41.770001 56.3349998,41.9199996 56.365,42.01 L56.32,42.235 L56.185,42.235 C56.3050006,42.3250004 56.365,42.5199985 56.365,42.82 L56.365,43.18 C56.365,43.5100016 56.4099995,43.8099987 56.5,44.08 L56.5,44.215 C56.5,44.2750003 56.5149998,44.3199998 56.545,44.35 L56.6125,44.485 C56.6275001,44.5150001 56.635,44.5599997 56.635,44.62 L56.59,44.8 C56.6500003,45.0400012 56.7099997,45.2199994 56.77,45.34 L56.86,45.43 C56.86,45.5200005 56.9049995,45.5799999 56.995,45.61 L57.085,45.655 C57.1750004,45.8050007 57.2050001,46.074998 57.175,46.465 C57.175,46.675001 57.1600001,46.7949999 57.13,46.825 C57.0999998,46.8550002 57.085,46.8999997 57.085,46.96 L56.725,47.185 L56.635,47.32 L56.59,47.455 C56.4999995,47.455 56.3800007,47.4999996 56.23,47.59 C55.8999983,47.7700009 55.5850015,47.8749999 55.285,47.905 C55.2249997,47.9650003 55.1200007,47.9350006 54.97,47.815 Z M53.17,32.83 L53.215,32.47 C53.2450001,32.3799996 53.26,32.2750006 53.26,32.155 L53.215,32.11 C53.215,32.0499997 53.2299998,32.0050002 53.26,31.975 L53.26,31.885 L53.395,31.3 C52.8549973,30.9099981 52.3900019,30.520002 52,30.13 C51.2799964,29.0799948 50.7850013,28.3975016 50.515,28.0825 C50.2449986,27.7674984 49.9600015,27.61 49.66,27.61 C49.3899986,27.61 49.1050015,27.714999 48.805,27.925 C48.6549992,28.0450006 48.4300015,28.3449976 48.13,28.825 C47.529997,29.9350056 47.0650016,31.1049939 46.735,32.335 L46.69,32.56 C46.6299997,32.6800006 46.6,32.7699997 46.6,32.83 L46.555,33.325 C46.4049992,34.525006 46.33,35.8299929 46.33,37.24 C46.33,38.7100074 46.4349989,39.9249952 46.645,40.885 L46.96,42.01 L47.23,43.045 L47.635,44.62 L47.635,44.8 C47.6950003,44.9200006 47.9499977,45.1449984 48.4,45.475 L48.625,45.7 C48.6850003,45.8200006 48.7599995,45.9099997 48.85,45.97 L48.94,46.015 C49.2700016,46.225001 49.5849985,46.3599997 49.885,46.42 L50.11,46.42 L50.11,46.465 L50.695,46.015 C51.0850019,45.414997 51.3699991,44.8000032 51.55,44.17 C51.5800001,44.1099997 51.6174998,44.0275005 51.6625,43.9225 C51.7075002,43.8174995 51.73,43.7350003 51.73,43.675 C51.7600001,43.6449998 51.775,43.5850005 51.775,43.495 C51.775,43.3749994 51.7899998,43.2850003 51.82,43.225 C51.8500001,43.1949998 51.8949997,43.075001 51.955,42.865 C52.0150003,42.6549989 52.0599998,42.5350001 52.09,42.505 C52.2700009,41.7249961 52.3899997,41.140002 52.45,40.75 C52.45,40.6299994 52.4649998,40.5400003 52.495,40.48 L52.495,39.985 C52.5550003,39.8349993 52.5550003,39.6700009 52.495,39.49 L52.45,39.13 C52.5100003,38.2599957 52.6299991,37.3150051 52.81,36.295 L52.945,35.44 L53.035,34.54 L53.125,33.82 C53.1550001,33.6399991 53.17,33.3100024 53.17,32.83 Z M70.72,47.095 L70.585,46.735 L70.54,46.735 C69.4299944,47.3950033 68.1250075,47.725 66.625,47.725 C65.8449961,47.725 65.0950036,47.6200011 64.375,47.41 L64.195,47.41 C63.9549988,47.2599993 63.6925014,47.087501 63.4075,46.8925 C63.1224986,46.697499 62.9050008,46.5250008 62.755,46.375 C62.5449989,46.164999 62.3350011,45.8800018 62.125,45.52 C61.734998,44.8299966 61.4575008,44.2000029 61.2925,43.63 C61.1274992,43.0599972 60.9700008,42.2350054 60.82,41.155 C60.4899984,38.7849882 60.325,37.0450056 60.325,35.935 C60.325,34.9149949 60.429999,34.0000041 60.64,33.19 C60.8800012,32.1699949 61.299997,31.1050055 61.9,29.995 C62.1100011,29.6649984 62.215,29.4700003 62.215,29.41 L62.44,29.095 L62.575,28.96 L62.845,28.645 L63.025,28.42 C63.1450006,28.2999994 63.2349997,28.2250002 63.295,28.195 L63.34,28.105 L64.375,27.295 L64.375,27.25 L64.69,27.07 C65.9500063,26.4999972 67.0599952,26.1700005 68.02,26.08 L69.19,26.08 C69.4000011,26.08 69.6249988,26.1549992 69.865,26.305 L69.865,23.74 L69.91,23.11 L69.955,22.615 L69.865,22.48 C69.865,22.3899995 69.8799999,22.3300001 69.91,22.3 C69.9400002,22.2699998 69.955,22.2250003 69.955,22.165 C70.0150003,21.2649955 70.0899996,20.5600026 70.18,20.05 L70.27,19.555 C70.27,19.2549985 70.2849999,19.0600004 70.315,18.97 L70.405,18.43 C70.4650003,17.9199975 70.5399995,17.6200004 70.63,17.53 L70.63,17.305 L70.675,17.35 L70.675,17.215 C70.675,17.1549997 70.7049997,17.0950003 70.765,17.035 C70.7950002,17.035 70.81,17.0200002 70.81,16.99 L70.945,16.81 C70.945,16.7499997 70.9749997,16.72 71.035,16.72 L71.08,16.63 L71.08,16.585 C71.2000006,16.5549999 71.3499991,16.5325001 71.53,16.5175 C71.7100009,16.5024999 71.8149999,16.5249997 71.845,16.585 C71.9050003,16.585 71.9799995,16.6224996 72.07,16.6975 C72.1600004,16.7725004 72.2199998,16.8549995 72.25,16.945 L72.385,16.945 C72.385,17.0050003 72.3999998,17.0499998 72.43,17.08 L72.43,17.17 C72.4600001,17.2300003 72.5649991,17.3499991 72.745,17.53 C72.7750001,17.5600002 72.8574993,17.6574992 72.9925,17.8225 C73.1275007,17.9875008 73.195,18.1299994 73.195,18.25 C73.195,19.7800076 73.1650003,20.9049964 73.105,21.625 L72.97,22.84 L73.015,23.425 L73.015,25.09 C72.9849998,25.4200017 72.97,25.7799981 72.97,26.17 L72.97,27.565 L73.015,27.655 C73.0450002,27.9850017 73.06,28.7799937 73.06,30.04 C73.06,31.2100058 73.0749998,31.8849991 73.105,32.065 L72.97,34.225 L73.015,34.405 L73.105,34.675 L73.15,34.765 C73.2100003,35.0650015 73.24,35.3949982 73.24,35.755 L73.15,36.025 C73.1199998,36.0550002 73.105,36.1449993 73.105,36.295 L73.15,36.43 C73.15,36.6100009 73.1649999,36.7749993 73.195,36.925 L73.195,37.6 L73.105,37.915 L73.015,37.915 C73.1050004,38.0050005 73.15,38.2149984 73.15,38.545 C73.15,38.7850012 73.1425001,39.1599975 73.1275,39.67 C73.1124999,40.1800026 73.1199998,40.6299981 73.15,41.02 L73.15,41.47 C73.15,41.5300003 73.1649999,41.5749999 73.195,41.605 C73.2250002,41.6350002 73.24,41.6949996 73.24,41.785 L73.24,42.055 L73.195,42.325 L73.195,42.64 C73.195,42.9700017 73.2099998,43.2249991 73.24,43.405 C73.2700002,43.4350002 73.285,43.4949996 73.285,43.585 C73.285,43.7650009 73.3299996,43.9149994 73.42,44.035 L73.51,44.215 L73.555,44.665 C73.555,45.0250018 73.5100004,45.4749973 73.42,46.015 C73.3299996,46.615003 73.2700002,46.9299999 73.24,46.96 C73.1799997,47.1400009 73.15,47.2449999 73.15,47.275 C73.0899997,47.3350003 72.9550011,47.365 72.745,47.365 C72.6849997,47.365 72.6400002,47.4249994 72.61,47.545 C72.5499997,47.6950008 72.5050002,47.77 72.475,47.77 L71.89,47.725 C71.5299982,47.6949999 71.2300012,47.6050008 70.99,47.455 C70.8999996,47.3949997 70.8100005,47.2750009 70.72,47.095 Z M70.135,43.045 L70,40.885 L69.955,40.795 C69.8949997,40.7049995 69.8949997,40.5850008 69.955,40.435 C69.955,40.2849992 69.9400002,40.1800003 69.91,40.12 L69.91,39.85 C69.8799998,39.7899997 69.865,39.7000006 69.865,39.58 C69.865,39.4599994 69.8799998,39.3550004 69.91,39.265 L69.91,38.95 C69.91,38.6199983 69.9249998,38.3500011 69.955,38.14 L69.955,37.42 L70,37.06 L70,36.655 C70,36.3249983 69.9850001,35.9725019 69.955,35.5975 C69.9249998,35.2224981 69.8950002,34.930001 69.865,34.72 L69.82,33.325 C69.7899998,33.1749993 69.775,32.9800012 69.775,32.74 L69.775,30.265 C69.7449998,30.2349999 69.73,30.1750004 69.73,30.085 L69.73,29.815 L69.775,29.725 L69.64,29.455 L69.415,28.825 C69.1449986,28.1949969 68.8600015,27.7750011 68.56,27.565 C68.3499989,27.4449994 68.1100013,27.385 67.84,27.385 C67.1499965,27.4450003 66.5200028,27.7299974 65.95,28.24 L65.77,28.42 C65.6799995,28.5100004 65.6200001,28.5999995 65.59,28.69 C64.8099961,29.9500063 64.2850014,31.1724941 64.015,32.3575 C63.7449986,33.5425059 63.5500006,34.7949934 63.43,36.115 C63.3699997,36.1750003 63.3699997,36.2499995 63.43,36.34 L63.52,36.655 C63.52,36.7750006 63.5349999,36.8649997 63.565,36.925 L63.61,37.06 L63.79,38.86 C63.8200001,39.070001 63.8200001,39.2349994 63.79,39.355 C63.7299997,39.5050008 63.7299997,39.6999988 63.79,39.94 L63.88,40.165 L64.42,42.73 L64.465,43.135 C64.4049997,43.135 64.3600001,43.1499999 64.33,43.18 C64.4800008,43.3000006 64.5999995,43.4949986 64.69,43.765 L64.735,44.035 C64.945001,44.6950033 65.2899976,45.2799975 65.77,45.79 L66.04,46.06 C66.1300004,46.1500005 66.2199995,46.2099998 66.31,46.24 L66.715,46.51 C67.0750018,46.6600008 67.3899986,46.7200002 67.66,46.69 C67.9300013,46.69 68.1699989,46.6000009 68.38,46.42 C68.8900026,45.9999979 69.2799986,45.5650022 69.55,45.115 L69.865,44.53 L70.135,44.125 L70.18,44.035 L70.135,43.045 Z M85.75,28.06 L85.615,27.925 C85.5549997,27.925 85.4050012,27.8350009 85.165,27.655 L84.67,27.43 C84.4599989,27.2799992 84.1750018,27.205 83.815,27.205 C83.3649978,27.205 83.035001,27.3549985 82.825,27.655 C82.4049979,28.255003 82.0450015,28.9674959 81.745,29.7925 C81.4449985,30.6175041 81.2350006,31.4349959 81.115,32.245 C80.8149985,34.1950098 80.6949997,35.9949918 80.755,37.645 L80.7325,37.735 C80.7174999,37.7950003 80.7249998,37.8549997 80.755,37.915 L80.845,38.275 L80.935,38.905 C81.3550021,41.3350122 81.9099965,43.3149924 82.6,44.845 C82.9900019,45.5650036 83.4249976,45.9849994 83.905,46.105 C84.0550007,46.105 84.2349989,46.0450006 84.445,45.925 C84.7750016,45.6549987 84.9999994,45.4300009 85.12,45.25 L85.345,45.025 C85.4350004,44.9349996 85.48,44.8750002 85.48,44.845 L85.525,44.71 C85.8850018,43.899996 86.0799998,43.4350006 86.11,43.315 L86.245,42.865 L86.335,43.045 L86.335,42.91 C86.335,42.8499997 86.3724996,42.6925013 86.4475,42.4375 C86.5225004,42.1824987 86.6049995,41.860002 86.695,41.47 C86.9950015,39.8499919 87.145,38.5750047 87.145,37.645 L87.19,37.285 L87.19,36.565 C87.1599999,36.4749996 87.145,36.3550008 87.145,36.205 L87.19,35.755 L87.145,35.215 C87.0849997,34.3449957 87.0100004,33.715002 86.92,33.325 L86.74,32.56 L86.605,32.155 C86.5749998,32.0949997 86.5450001,32.0425002 86.515,31.9975 C86.4849998,31.9524998 86.4550001,31.9150002 86.425,31.885 C86.1849988,31.0749959 86.0350003,30.4300024 85.975,29.95 L85.885,29.5 C85.8249997,29.2299986 85.7800001,29.0125008 85.75,28.8475 C85.7199998,28.6824992 85.705,28.5850001 85.705,28.555 L85.75,28.285 C85.7199998,28.2549998 85.7349997,28.2100003 85.795,28.15 L85.75,28.06 Z M87.685,27.385 L87.91,27.565 L88,27.7 C88.0600003,27.8200006 88.1049998,27.8650002 88.135,27.835 L88.18,27.79 L88.36,28.06 L88.405,28.06 L88.54,28.375 C89.0800027,29.4250053 89.4999985,30.8424911 89.8,32.6275 C90.1000015,34.4125089 90.2350001,36.30999 90.205,38.32 L90.25,38.5 C90.2199998,38.7400012 90.1675004,39.1299973 90.0925,39.67 C90.0174996,40.2100027 89.9500003,40.6299985 89.89,40.93 C89.7399992,41.3200019 89.6050006,41.7399977 89.485,42.19 C89.3049991,42.9400037 88.8850033,43.7949952 88.225,44.755 C88.0149989,45.0850017 87.7300018,45.4149983 87.37,45.745 C86.7999971,46.3150028 86.1475037,46.7349987 85.4125,47.005 C84.6774963,47.2750014 83.9350037,47.41 83.185,47.41 C82.584997,47.41 82.0300025,47.3200009 81.52,47.14 C80.6499956,46.8099983 79.7950042,45.9250072 78.955,44.485 C78.8049992,44.1849985 78.6400009,43.7800025 78.46,43.27 L78.37,42.955 C78.3399998,42.7449989 78.2650006,42.5050013 78.145,42.235 L78.01,41.785 C77.9799998,41.6949995 77.9799998,41.6050004 78.01,41.515 C78.01,41.4249996 77.9950001,41.3650002 77.965,41.335 C77.7849991,40.0749937 77.695,39.340001 77.695,39.13 L77.65,39.13 L77.65,38.455 C77.7400004,35.2149838 77.9949979,32.800008 78.415,31.21 L79.18,29.275 L79.225,29.095 C79.2850003,28.9749994 79.4049991,28.8250009 79.585,28.645 L80.395,27.79 C80.6650013,27.4899985 80.9274987,27.2275011 81.1825,27.0025 C81.4375013,26.7774989 81.7449982,26.5750009 82.105,26.395 C82.6750028,26.0949985 83.2749968,25.945 83.905,25.945 C84.2950019,25.945 84.7149977,25.9899996 85.165,26.08 C85.7950031,26.2000006 86.1849992,26.3199994 86.335,26.44 C86.335,26.5000003 86.3949994,26.5449998 86.515,26.575 C86.6350006,26.6650005 86.7099998,26.71 86.74,26.71 L86.695,26.755 L86.83,26.935 L86.92,27.025 C87.0700007,27.025 87.3249982,27.1449988 87.685,27.385 Z" id="laado"></path>
        </g>
    </g>
</svg>