<?xml version="1.0" encoding="UTF-8"?>
<svg width="141px" height="64px" viewBox="0 0 141 64" version="1.1" xmlns="http://www.w3.org/2000/svg" xmlns:xlink="http://www.w3.org/1999/xlink">
    <!-- Generator: Sketch 46.1 (44463) - http://www.bohemiancoding.com/sketch -->
    <title>logo_3</title>
    <desc>Created with Sketch.</desc>
    <defs></defs>
    <g id="Page-1" stroke="none" stroke-width="1" fill="none" fill-rule="evenodd">
        <g id="logo_3" fill="#FFFFFF">
            <g id="Group-2" transform="translate(16.000000, 15.000000)">
                <path d="M7.63,30.47 L7.5625,30.6725 C7.54749993,30.7175002 7.52500015,30.7549999 7.495,30.785 C7.52500015,30.8150002 7.5100003,30.8599997 7.45,30.92 L7.36,30.965 L7.405,31.01 L7.27,31.1 L7.18,31.19 C7.18,31.2200002 7.19499985,31.235 7.225,31.235 L7.045,31.46 C6.23499595,31.850002 5.42500405,32.045 4.615,32.045 C3.56499475,32.045 2.69500345,31.6850036 2.005,30.965 L1.915,30.92 C1.82499955,30.8299995 1.7500003,30.7250006 1.69,30.605 C1.6299997,30.4849994 1.6,30.3800004 1.6,30.29 C1.56999985,30.29 1.5250003,30.2150008 1.465,30.065 L1.33,29.795 L1.33,29.75 L1.24,29.075 C1.1799997,28.684998 1.1200003,28.3400015 1.06,28.04 C0.9999997,27.7399985 0.95500015,27.485001 0.925,27.275 L0.925,27.005 C0.925,26.614998 0.91000015,26.3600006 0.88,26.24 L0.7,24.98 L0.565,23.54 C0.3849991,22.3999943 0.295,21.425004 0.295,20.615 L0.295,17.06 L0.34,16.7 C0.30999985,16.6099995 0.295,16.5050006 0.295,16.385 C0.295,16.2049991 0.30999985,16.0550006 0.34,15.935 L0.385,15.755 L0.385,15.215 C0.35499985,15.1549997 0.347499925,15.0875004 0.3625,15.0125 C0.377500075,14.9374996 0.37000015,14.8700003 0.34,14.81 L0.34,14.63 C0.34,14.5099994 0.35499985,14.4350002 0.385,14.405 L0.385,14.27 L0.475,13.46 L0.475,12.515 L0.43,12.515 L0.475,12.02 C0.50500015,11.7799988 0.542499775,11.3225034 0.5875,10.6475 C0.632500225,9.97249663 0.6849997,9.11000525 0.745,8.06 C0.745,7.54999745 0.75999985,7.1450015 0.79,6.845 L0.88,6.08 L0.925,5.405 L0.88,5.27 C0.91000015,5.23999985 0.925,5.20250022 0.925,5.1575 C0.925,5.11249978 0.93999985,5.07500015 0.97,5.045 C1.00000015,5.01499985 1.00750008,4.99250008 0.9925,4.9775 C0.977499925,4.96249993 0.97,4.94000015 0.97,4.91 C1.00000015,4.57999835 1.05999955,4.18250233 1.15,3.7175 C1.24000045,3.25249768 1.29999985,2.91500105 1.33,2.705 C1.36000015,2.5849994 1.38249993,2.42750098 1.3975,2.2325 C1.41250008,2.03749903 1.43499985,1.8800006 1.465,1.76 L1.825,0.815 L1.87,0.725 L1.87,0.68 L1.915,0.68 L1.915,0.635 C1.915,0.5749997 1.9449997,0.545 2.005,0.545 L2.05,0.545 C2.1100003,0.51499985 2.16249978,0.5 2.2075,0.5 C2.25250023,0.5 2.275,0.48500015 2.275,0.455 L2.32,0.365 C2.4400006,0.365 2.57499925,0.37999985 2.725,0.41 C2.87500075,0.44000015 2.9799997,0.46999985 3.04,0.5 L3.4,0.68 L3.49,0.68 L3.58,0.77 L3.625,0.86 C3.7450006,0.89000015 3.9549985,1.0249988 4.255,1.265 C4.3150003,1.3250003 4.33000015,1.39999955 4.3,1.49 C4.33000015,1.76000135 4.33000015,2.17999715 4.3,2.75 C4.26999985,3.32000285 4.21000045,3.88999715 4.12,4.46 C4.02999955,5.15000345 3.9550003,5.8849961 3.895,6.665 L3.85,7.43 C3.85,10.1600136 3.7900006,11.5849994 3.67,11.705 C3.63999985,11.7350002 3.625,11.8099994 3.625,11.93 L3.625,12.2 C3.625,12.3200006 3.63999985,12.4099997 3.67,12.47 L3.67,12.65 L3.625,19.535 C3.65500015,19.7150009 3.67,20.0899972 3.67,20.66 C3.67,21.4400039 3.66250008,21.9724986 3.6475,22.2575 C3.63249993,22.5425014 3.625,22.7149997 3.625,22.775 C3.65500015,22.8050001 3.67,22.8949992 3.67,23.045 C3.7300003,23.1350005 3.76,23.2549992 3.76,23.405 L3.85,23.54 C3.94000045,24.1700031 3.985,24.6049988 3.985,24.845 C3.985,25.0250009 3.97000015,25.1299999 3.94,25.16 C3.8799997,25.2500005 3.8799997,25.3699993 3.94,25.52 L4.075,25.655 C4.075,25.9250014 4.08999985,26.1649989 4.12,26.375 C4.15000015,26.4950006 4.17999985,26.6224993 4.21,26.7575 C4.24000015,26.8925007 4.24000015,26.9899997 4.21,27.05 L4.165,27.41 C4.13499985,27.3799999 4.10500015,27.3799999 4.075,27.41 C4.28500105,27.620001 4.40499985,27.9199981 4.435,28.31 C4.46500015,28.8200025 4.5699991,29.3299975 4.75,29.84 L4.795,29.975 L4.795,30.065 C4.795,30.0950002 4.80999985,30.11 4.84,30.11 L4.885,30.2 L4.84,30.425 L4.75,30.74 C4.71999985,30.7700002 4.71249993,30.7924999 4.7275,30.8075 C4.74250008,30.8225001 4.75,30.8449998 4.75,30.875 L4.795,30.92 L4.885,30.92 C5.0650009,30.92 5.1849997,30.7700015 5.245,30.47 C5.3050003,30.2899991 5.34999985,30.1850002 5.38,30.155 L5.65,29.66 L5.785,29.435 L5.875,29.255 C5.875,29.2249999 5.9949988,29.2549996 6.235,29.345 L6.325,29.21 C6.325,29.1799999 6.33999985,29.1350003 6.37,29.075 C6.40000015,29.0149997 6.42999985,28.9999998 6.46,29.03 L6.955,29.165 C7.3750021,29.3150007 7.6449994,29.4949989 7.765,29.705 C7.765,29.9450012 7.72000045,30.1999986 7.63,30.47 Z M28.2500001,32.18 L28.0250001,32.09 L27.9350001,32 L27.9350001,31.955 L27.8900001,32 L27.8450001,31.91 L27.8450001,31.865 L27.8450001,31.91 L27.8000001,31.91 L27.7550001,31.82 C27.3949983,31.3999979 27.1100011,30.8000039 26.9000001,30.02 C26.4499978,30.620003 26.030002,31.024999 25.6400001,31.235 C25.429999,31.4150009 25.1600017,31.5499996 24.8300001,31.64 C24.0799963,31.8500011 23.4500026,31.9699999 22.9400001,32 L22.6700001,32 C22.459999,32 22.2050016,31.9700003 21.9050001,31.91 C20.9749954,31.699999 20.2475027,31.4750012 19.7225001,31.235 C19.1974975,30.9949988 18.7100023,30.5675031 18.2600001,29.9525 C17.8099978,29.3374969 17.390002,28.4150062 17.0000001,27.185 C16.6399983,26.0449943 16.3850008,24.5300095 16.2350001,22.64 L16.2350001,22.19 C16.2049999,22.0699994 16.1900001,21.9050011 16.1900001,21.695 C16.1900001,21.484999 16.2049999,21.3050008 16.2350001,21.155 L16.2800001,20.84 L16.3700001,19.49 C16.3700001,19.3999996 16.3849999,19.3250003 16.4150001,19.265 L16.4600001,19.085 C16.640001,18.1849955 16.8049993,17.4950024 16.9550001,17.015 L16.8650001,17.015 L17.1350001,16.43 C18.1850053,14.0899883 19.2049951,12.5300039 20.1950001,11.75 C20.4050011,11.5699991 20.8549966,11.3450014 21.5450001,11.075 L21.6800001,10.985 C21.6499999,10.985 21.7849986,10.9550003 22.0850001,10.895 C22.3850016,10.8349997 22.8049974,10.805 23.3450001,10.805 C24.5750062,10.805 25.5649963,11.1799963 26.3150001,11.93 C26.495001,12.0800008 26.8249977,12.4699969 27.3050001,13.1 L27.7550001,13.73 L28.0250001,13.73 C28.2350011,13.73 28.3549999,13.7449999 28.3850001,13.775 C28.4450004,13.775 28.5124997,13.7974998 28.5875001,13.8425 C28.6625005,13.8875002 28.7299998,13.9249999 28.7900001,13.955 L28.8350001,13.955 L28.9700001,14 C28.9700001,14.0300002 28.9849999,14.045 29.0150001,14.045 L29.6450001,14.36 L29.7350001,14.54 L29.7800001,14.99 C29.7800001,15.380002 29.7350005,15.7549982 29.6450001,16.115 L29.5550001,16.835 C29.4949998,16.8950003 29.4949998,16.9999993 29.5550001,17.15 L29.5550001,17.51 C29.5249999,17.7200011 29.4950002,18.0124981 29.4650001,18.3875 C29.4349999,18.7625019 29.4349999,19.0849987 29.4650001,19.355 L29.4650001,19.445 C29.4349999,19.4750002 29.4200001,19.5199997 29.4200001,19.58 C29.4200001,19.6400003 29.4349999,19.6849999 29.4650001,19.715 L29.4650001,19.805 C29.4950002,19.9850009 29.5100001,20.4649961 29.5100001,21.245 C29.4799999,21.7250024 29.4650001,22.2199975 29.4650001,22.73 L29.4650001,23 C29.4650001,23.3300017 29.4500002,23.5849991 29.4200001,23.765 C29.3899999,23.8850006 29.3750001,24.0199993 29.3750001,24.17 L29.4650001,24.395 L29.5550001,24.575 C29.6150004,24.7550009 29.6450001,24.9649988 29.6450001,25.205 L29.5550001,25.385 C29.5249999,25.4150002 29.5100001,25.4449999 29.5100001,25.475 L29.5100001,25.52 L29.6000001,25.61 L29.6000001,25.925 C29.6000001,26.1350011 29.6149999,26.2849996 29.6450001,26.375 L29.6000001,26.6 L29.4650001,26.6 C29.5850007,26.6900005 29.6450001,26.8849985 29.6450001,27.185 L29.6450001,27.545 C29.6450001,27.8750017 29.6899996,28.1749986 29.7800001,28.445 L29.7800001,28.58 C29.7800001,28.6400003 29.7949999,28.6849999 29.8250001,28.715 L29.8925001,28.85 C29.9075002,28.8800002 29.9150001,28.9249997 29.9150001,28.985 L29.8700001,29.165 C29.9300004,29.4050012 29.9899998,29.5849994 30.0500001,29.705 L30.1400001,29.795 C30.1400001,29.8850005 30.1849996,29.9449999 30.2750001,29.975 L30.3650001,30.02 C30.4550005,30.1700008 30.4850002,30.4399981 30.4550001,30.83 C30.4550001,31.0400011 30.4400002,31.1599998 30.4100001,31.19 C30.3799999,31.2200002 30.3650001,31.2649997 30.3650001,31.325 L30.0050001,31.55 L29.9150001,31.685 L29.8700001,31.82 C29.7799996,31.82 29.6600008,31.8649996 29.5100001,31.955 C29.1799984,32.1350009 28.8650016,32.2399999 28.5650001,32.27 C28.5049998,32.3300003 28.4000008,32.3000006 28.2500001,32.18 Z M26.4500001,17.195 L26.4950001,16.835 C26.5250002,16.7449996 26.5400001,16.6400006 26.5400001,16.52 L26.4950001,16.475 C26.4950001,16.4149997 26.5099999,16.3700002 26.5400001,16.34 L26.5400001,16.25 L26.6750001,15.665 C26.1349974,15.274998 25.670002,14.885002 25.2800001,14.495 C24.5599965,13.4449948 24.0650014,12.7625016 23.7950001,12.4475 C23.5249987,12.1324984 23.2400016,11.975 22.9400001,11.975 C22.6699987,11.975 22.3850016,12.079999 22.0850001,12.29 C21.9349993,12.4100006 21.7100016,12.7099976 21.4100001,13.19 C20.8099971,14.3000056 20.3450017,15.4699939 20.0150001,16.7 L19.9700001,16.925 C19.9099998,17.0450006 19.8800001,17.1349997 19.8800001,17.195 L19.8350001,17.69 C19.6849993,18.890006 19.6100001,20.1949929 19.6100001,21.605 C19.6100001,23.0750073 19.714999,24.2899952 19.9250001,25.25 L20.2400001,26.375 L20.5100001,27.41 L20.9150001,28.985 L20.9150001,29.165 C20.9750004,29.2850006 21.2299978,29.5099984 21.6800001,29.84 L21.9050001,30.065 C21.9650004,30.1850006 22.0399996,30.2749997 22.1300001,30.335 L22.2200001,30.38 C22.5500017,30.590001 22.8649986,30.7249997 23.1650001,30.785 L23.3900001,30.785 L23.3900001,30.83 L23.9750001,30.38 C24.365002,29.779997 24.6499992,29.1650032 24.8300001,28.535 C24.8600002,28.4749997 24.8974999,28.3925005 24.9425001,28.2875 C24.9875003,28.1824995 25.0100001,28.1000003 25.0100001,28.04 C25.0400002,28.0099998 25.0550001,27.9500005 25.0550001,27.86 C25.0550001,27.7399994 25.0699999,27.6500003 25.1000001,27.59 C25.1300002,27.5599998 25.1749998,27.4400011 25.2350001,27.23 C25.2950004,27.019999 25.3399999,26.9000001 25.3700001,26.87 C25.550001,26.0899961 25.6699998,25.505002 25.7300001,25.115 C25.7300001,24.9949994 25.7449999,24.9050003 25.7750001,24.845 L25.7750001,24.35 C25.8350004,24.1999993 25.8350004,24.0350009 25.7750001,23.855 L25.7300001,23.495 C25.7900004,22.6249957 25.9099992,21.6800051 26.0900001,20.66 L26.2250001,19.805 L26.3150001,18.905 L26.4050001,18.185 C26.4350002,18.0049991 26.4500001,17.6750024 26.4500001,17.195 Z M52.0650002,32.18 L51.8400002,32.09 L51.7500002,32 L51.7500002,31.955 L51.7050002,32 L51.6600002,31.91 L51.6600002,31.865 L51.6600002,31.91 L51.6150002,31.91 L51.5700002,31.82 C51.2099984,31.3999979 50.9250012,30.8000039 50.7150002,30.02 C50.2649979,30.620003 49.8450021,31.024999 49.4550002,31.235 C49.2449991,31.4150009 48.9750018,31.5499996 48.6450002,31.64 C47.8949964,31.8500011 47.2650027,31.9699999 46.7550002,32 L46.4850002,32 C46.2749991,32 46.0200017,31.9700003 45.7200002,31.91 C44.7899955,31.699999 44.0625028,31.4750012 43.5375002,31.235 C43.0124976,30.9949988 42.5250024,30.5675031 42.0750002,29.9525 C41.6249979,29.3374969 41.2050021,28.4150062 40.8150002,27.185 C40.4549984,26.0449943 40.2000009,24.5300095 40.0500002,22.64 L40.0500002,22.19 C40.02,22.0699994 40.0050002,21.9050011 40.0050002,21.695 C40.0050002,21.484999 40.02,21.3050008 40.0500002,21.155 L40.0950002,20.84 L40.1850002,19.49 C40.1850002,19.3999996 40.2,19.3250003 40.2300002,19.265 L40.2750002,19.085 C40.4550011,18.1849955 40.6199994,17.4950024 40.7700002,17.015 L40.6800002,17.015 L40.9500002,16.43 C42.0000054,14.0899883 43.0199952,12.5300039 44.0100002,11.75 C44.2200012,11.5699991 44.6699967,11.3450014 45.3600002,11.075 L45.4950002,10.985 C45.465,10.985 45.5999987,10.9550003 45.9000002,10.895 C46.2000017,10.8349997 46.6199975,10.805 47.1600002,10.805 C48.3900063,10.805 49.3799964,11.1799963 50.1300002,11.93 C50.3100011,12.0800008 50.6399978,12.4699969 51.1200002,13.1 L51.5700002,13.73 L51.8400002,13.73 C52.0500012,13.73 52.17,13.7449999 52.2000002,13.775 C52.2600005,13.775 52.3274998,13.7974998 52.4025002,13.8425 C52.4775006,13.8875002 52.5449999,13.9249999 52.6050002,13.955 L52.6500002,13.955 L52.7850002,14 C52.7850002,14.0300002 52.8,14.045 52.8300002,14.045 L53.4600002,14.36 L53.5500002,14.54 L53.5950002,14.99 C53.5950002,15.380002 53.5500006,15.7549982 53.4600002,16.115 L53.3700002,16.835 C53.3099999,16.8950003 53.3099999,16.9999993 53.3700002,17.15 L53.3700002,17.51 C53.34,17.7200011 53.3100003,18.0124981 53.2800002,18.3875 C53.25,18.7625019 53.25,19.0849987 53.2800002,19.355 L53.2800002,19.445 C53.25,19.4750002 53.2350002,19.5199997 53.2350002,19.58 C53.2350002,19.6400003 53.25,19.6849999 53.2800002,19.715 L53.2800002,19.805 C53.3100003,19.9850009 53.3250002,20.4649961 53.3250002,21.245 C53.295,21.7250024 53.2800002,22.2199975 53.2800002,22.73 L53.2800002,23 C53.2800002,23.3300017 53.2650003,23.5849991 53.2350002,23.765 C53.205,23.8850006 53.1900002,24.0199993 53.1900002,24.17 L53.2800002,24.395 L53.3700002,24.575 C53.4300005,24.7550009 53.4600002,24.9649988 53.4600002,25.205 L53.3700002,25.385 C53.34,25.4150002 53.3250002,25.4449999 53.3250002,25.475 L53.3250002,25.52 L53.4150002,25.61 L53.4150002,25.925 C53.4150002,26.1350011 53.43,26.2849996 53.4600002,26.375 L53.4150002,26.6 L53.2800002,26.6 C53.4000008,26.6900005 53.4600002,26.8849985 53.4600002,27.185 L53.4600002,27.545 C53.4600002,27.8750017 53.5049997,28.1749986 53.5950002,28.445 L53.5950002,28.58 C53.5950002,28.6400003 53.61,28.6849999 53.6400002,28.715 L53.7075002,28.85 C53.7225003,28.8800002 53.7300002,28.9249997 53.7300002,28.985 L53.6850002,29.165 C53.7450005,29.4050012 53.8049999,29.5849994 53.8650002,29.705 L53.9550002,29.795 C53.9550002,29.8850005 53.9999997,29.9449999 54.0900002,29.975 L54.1800002,30.02 C54.2700006,30.1700008 54.3000003,30.4399981 54.2700002,30.83 C54.2700002,31.0400011 54.2550003,31.1599998 54.2250002,31.19 C54.195,31.2200002 54.1800002,31.2649997 54.1800002,31.325 L53.8200002,31.55 L53.7300002,31.685 L53.6850002,31.82 C53.5949997,31.82 53.4750009,31.8649996 53.3250002,31.955 C52.9949985,32.1350009 52.6800017,32.2399999 52.3800002,32.27 C52.3199999,32.3300003 52.2150009,32.3000006 52.0650002,32.18 Z M50.2650002,17.195 L50.3100002,16.835 C50.3400003,16.7449996 50.3550002,16.6400006 50.3550002,16.52 L50.3100002,16.475 C50.3100002,16.4149997 50.325,16.3700002 50.3550002,16.34 L50.3550002,16.25 L50.4900002,15.665 C49.9499975,15.274998 49.4850021,14.885002 49.0950002,14.495 C48.3749966,13.4449948 47.8800015,12.7625016 47.6100002,12.4475 C47.3399988,12.1324984 47.0550017,11.975 46.7550002,11.975 C46.4849988,11.975 46.2000017,12.079999 45.9000002,12.29 C45.7499994,12.4100006 45.5250017,12.7099976 45.2250002,13.19 C44.6249972,14.3000056 44.1600018,15.4699939 43.8300002,16.7 L43.7850002,16.925 C43.7249999,17.0450006 43.6950002,17.1349997 43.6950002,17.195 L43.6500002,17.69 C43.4999994,18.890006 43.4250002,20.1949929 43.4250002,21.605 C43.4250002,23.0750073 43.5299991,24.2899952 43.7400002,25.25 L44.0550002,26.375 L44.3250002,27.41 L44.7300002,28.985 L44.7300002,29.165 C44.7900005,29.2850006 45.0449979,29.5099984 45.4950002,29.84 L45.7200002,30.065 C45.7800005,30.1850006 45.8549997,30.2749997 45.9450002,30.335 L46.0350002,30.38 C46.3650018,30.590001 46.6799987,30.7249997 46.9800002,30.785 L47.2050002,30.785 L47.2050002,30.83 L47.7900002,30.38 C48.1800021,29.779997 48.4649993,29.1650032 48.6450002,28.535 C48.6750003,28.4749997 48.7125,28.3925005 48.7575002,28.2875 C48.8025004,28.1824995 48.8250002,28.1000003 48.8250002,28.04 C48.8550003,28.0099998 48.8700002,27.9500005 48.8700002,27.86 C48.8700002,27.7399994 48.885,27.6500003 48.9150002,27.59 C48.9450003,27.5599998 48.9899999,27.4400011 49.0500002,27.23 C49.1100005,27.019999 49.155,26.9000001 49.1850002,26.87 C49.3650011,26.0899961 49.4849999,25.505002 49.5450002,25.115 C49.5450002,24.9949994 49.56,24.9050003 49.5900002,24.845 L49.5900002,24.35 C49.6500005,24.1999993 49.6500005,24.0350009 49.5900002,23.855 L49.5450002,23.495 C49.6050005,22.6249957 49.7249993,21.6800051 49.9050002,20.66 L50.0400002,19.805 L50.1300002,18.905 L50.2200002,18.185 C50.2500003,18.0049991 50.2650002,17.6750024 50.2650002,17.195 Z M74.2150003,31.46 L74.0800003,31.1 L74.0350003,31.1 C72.9249947,31.7600033 71.6200078,32.09 70.1200003,32.09 C69.3399964,32.09 68.5900039,31.985001 67.8700003,31.775 L67.6900003,31.775 C67.4499991,31.6249993 67.1875017,31.452501 66.9025003,31.2575 C66.6174989,31.062499 66.400001,30.8900008 66.2500003,30.74 C66.0399992,30.5299989 65.8300013,30.2450018 65.6200003,29.885 C65.2299983,29.1949966 64.9525011,28.5650029 64.7875003,27.995 C64.6224995,27.4249971 64.465001,26.6000054 64.3150003,25.52 C63.9849986,23.1499882 63.8200003,21.4100055 63.8200003,20.3 C63.8200003,19.2799949 63.9249992,18.3650041 64.1350003,17.555 C64.3750015,16.5349949 64.7949973,15.4700055 65.3950003,14.36 C65.6050013,14.0299984 65.7100003,13.8350003 65.7100003,13.775 L65.9350003,13.46 L66.0700003,13.325 L66.3400003,13.01 L66.5200003,12.785 C66.6400009,12.6649994 66.73,12.5900002 66.7900003,12.56 L66.8350003,12.47 L67.8700003,11.66 L67.8700003,11.615 L68.1850003,11.435 C69.4450066,10.8649971 70.5549955,10.5350005 71.5150003,10.445 L72.6850003,10.445 C72.8950013,10.445 73.1199991,10.5199992 73.3600003,10.67 L73.3600003,8.105 L73.4050003,7.475 L73.4500003,6.98 L73.3600003,6.845 C73.3600003,6.75499955 73.3750001,6.69500015 73.4050003,6.665 C73.4350004,6.63499985 73.4500003,6.5900003 73.4500003,6.53 C73.5100006,5.6299955 73.5849998,4.92500255 73.6750003,4.415 L73.7650003,3.92 C73.7650003,3.6199985 73.7800001,3.42500045 73.8100003,3.335 L73.9000003,2.795 C73.9600006,2.28499745 74.0349998,1.98500045 74.1250003,1.895 L74.1250003,1.67 L74.1700003,1.715 L74.1700003,1.58 C74.1700003,1.5199997 74.2,1.4600003 74.2600003,1.4 C74.2900004,1.4 74.3050003,1.38500015 74.3050003,1.355 L74.4400003,1.175 C74.4400003,1.1149997 74.47,1.085 74.5300003,1.085 L74.5750003,0.995 L74.5750003,0.95 C74.6950009,0.91999985 74.8449994,0.897500075 75.0250003,0.8825 C75.2050012,0.867499925 75.3100001,0.8899997 75.3400003,0.95 C75.4000006,0.95 75.4749998,0.987499625 75.5650003,1.0625 C75.6550007,1.13750038 75.7150001,1.21999955 75.7450003,1.31 L75.8800003,1.31 C75.8800003,1.3700003 75.8950001,1.41499985 75.9250003,1.445 L75.9250003,1.535 C75.9550004,1.5950003 76.0599994,1.7149991 76.2400003,1.895 C76.2700004,1.92500015 76.3524996,2.02249918 76.4875003,2.1875 C76.622501,2.35250083 76.6900003,2.4949994 76.6900003,2.615 C76.6900003,4.14500765 76.6600006,5.2699964 76.6000003,5.99 L76.4650003,7.205 L76.5100003,7.79 L76.5100003,9.455 C76.4800001,9.78500165 76.4650003,10.144998 76.4650003,10.535 L76.4650003,11.93 L76.5100003,12.02 C76.5400004,12.3500016 76.5550003,13.1449937 76.5550003,14.405 C76.5550003,15.5750058 76.5700001,16.2499991 76.6000003,16.43 L76.4650003,18.59 L76.5100003,18.77 L76.6000003,19.04 L76.6450003,19.13 C76.7050006,19.4300015 76.7350003,19.7599982 76.7350003,20.12 L76.6450003,20.39 C76.6150001,20.4200001 76.6000003,20.5099992 76.6000003,20.66 L76.6450003,20.795 C76.6450003,20.9750009 76.6600001,21.1399993 76.6900003,21.29 L76.6900003,21.965 L76.6000003,22.28 L76.5100003,22.28 C76.6000007,22.3700004 76.6450003,22.5799984 76.6450003,22.91 C76.6450003,23.1500012 76.6375004,23.5249975 76.6225003,24.035 C76.6075002,24.5450025 76.6150001,24.994998 76.6450003,25.385 L76.6450003,25.835 C76.6450003,25.8950003 76.6600001,25.9399998 76.6900003,25.97 C76.7200004,26.0000002 76.7350003,26.0599996 76.7350003,26.15 L76.7350003,26.42 L76.6900003,26.69 L76.6900003,27.005 C76.6900003,27.3350016 76.7050001,27.5899991 76.7350003,27.77 C76.7650004,27.8000002 76.7800003,27.8599996 76.7800003,27.95 C76.7800003,28.1300009 76.8249998,28.2799994 76.9150003,28.4 L77.0050003,28.58 L77.0500003,29.03 C77.0500003,29.3900018 77.0050007,29.8399973 76.9150003,30.38 C76.8249998,30.980003 76.7650004,31.2949998 76.7350003,31.325 C76.675,31.5050009 76.6450003,31.6099999 76.6450003,31.64 C76.585,31.7000003 76.4500013,31.73 76.2400003,31.73 C76.18,31.73 76.1350004,31.7899994 76.1050003,31.91 C76.045,32.0600008 76.0000004,32.135 75.9700003,32.135 L75.3850003,32.09 C75.0249985,32.0599998 74.7250015,31.9700008 74.4850003,31.82 C74.3949998,31.7599997 74.3050007,31.6400009 74.2150003,31.46 Z M73.6300003,27.41 L73.4950003,25.25 L73.4500003,25.16 C73.39,25.0699996 73.39,24.9500008 73.4500003,24.8 C73.4500003,24.6499993 73.4350004,24.5450003 73.4050003,24.485 L73.4050003,24.215 C73.3750001,24.1549997 73.3600003,24.0650006 73.3600003,23.945 C73.3600003,23.8249994 73.3750001,23.7200005 73.4050003,23.63 L73.4050003,23.315 C73.4050003,22.9849984 73.4200001,22.7150011 73.4500003,22.505 L73.4500003,21.785 L73.4950003,21.425 L73.4950003,21.02 C73.4950003,20.6899983 73.4800004,20.3375019 73.4500003,19.9625 C73.4200001,19.5874981 73.3900004,19.295001 73.3600003,19.085 L73.3150003,17.69 C73.2850001,17.5399992 73.2700003,17.3450012 73.2700003,17.105 L73.2700003,14.63 C73.2400001,14.5999999 73.2250003,14.5400005 73.2250003,14.45 L73.2250003,14.18 L73.2700003,14.09 L73.1350003,13.82 L72.9100003,13.19 C72.6399989,12.5599969 72.3550018,12.140001 72.0550003,11.93 C71.8449992,11.8099994 71.6050016,11.75 71.3350003,11.75 C70.6449968,11.8100003 70.0150031,12.0949974 69.4450003,12.605 L69.2650003,12.785 C69.1749998,12.8750005 69.1150004,12.9649996 69.0850003,13.055 C68.3049964,14.3150063 67.7800016,15.5374941 67.5100003,16.7225 C67.2399989,17.9075059 67.0450009,19.1599934 66.9250003,20.48 C66.865,20.5400003 66.865,20.6149995 66.9250003,20.705 L67.0150003,21.02 C67.0150003,21.1400006 67.0300001,21.2299997 67.0600003,21.29 L67.1050003,21.425 L67.2850003,23.225 C67.3150004,23.4350011 67.3150004,23.5999994 67.2850003,23.72 C67.225,23.8700008 67.225,24.0649988 67.2850003,24.305 L67.3750003,24.53 L67.9150003,27.095 L67.9600003,27.5 C67.9,27.5 67.8550004,27.5149999 67.8250003,27.545 C67.975001,27.6650006 68.0949998,27.8599986 68.1850003,28.13 L68.2300003,28.4 C68.4400013,29.0600033 68.7849979,29.6449975 69.2650003,30.155 L69.5350003,30.425 C69.6250007,30.5150005 69.7149998,30.5749999 69.8050003,30.605 L70.2100003,30.875 C70.5700021,31.0250008 70.8849989,31.0850002 71.1550003,31.055 C71.4250016,31.055 71.6649992,30.9650009 71.8750003,30.785 C72.3850028,30.3649979 72.7749989,29.9300023 73.0450003,29.48 L73.3600003,28.895 L73.6300003,28.49 L73.6750003,28.4 L73.6300003,27.41 Z" id="laad"></path>
                <g id="Group" transform="translate(83.000000, 8.000000)">
                    <path d="M12.8828829,9.26289926 C12.3505324,8.94348894 11.4987715,8.51760852 10.8599509,7.98525799 C10.7534808,8.94348894 10.4340704,9.7952498 10.3276003,10.4340704 C9.68877969,10.6470106 8.83701884,10.8599509 7.98525799,10.966421 C8.51760852,11.7117117 8.94348894,12.5634726 9.26289926,13.0958231 C8.94348894,13.6281736 8.51760852,14.3734644 7.98525799,15.1187551 C8.94348894,15.2252252 9.7952498,15.4381654 10.4340704,15.6511057 C10.6470106,16.1834562 10.8599509,17.035217 10.966421,17.993448 C11.7117117,17.3546274 12.5634726,16.9287469 13.0958231,16.6093366 C13.6281736,16.9287469 14.3734644,17.3546274 15.1187551,17.8869779 C15.2252252,16.9287469 15.4381654,16.0769861 15.6511057,15.4381654 C16.1834562,15.3316953 17.035217,15.012285 17.993448,14.9058149 C17.3546274,14.2669943 16.9287469,13.4152334 16.6093366,12.8828829 C16.9287469,12.3505324 17.3546274,11.4987715 17.8869779,10.8599509 C16.9287469,10.7534808 16.0769861,10.4340704 15.4381654,10.3276003 C15.3316953,9.68877969 15.012285,8.83701884 14.9058149,7.98525799 C14.2669943,8.51760852 13.4152334,8.94348894 12.8828829,9.26289926 Z M18.6322686,10.00819 C19.0581491,9.68877969 19.5904996,9.36936937 20.1228501,9.36936937 C20.2293202,9.15642916 20.01638,8.94348894 19.8034398,9.15642916 C18.8452088,9.68877969 17.7805078,9.68877969 16.7158067,9.58230958 C16.3963964,9.58230958 16.3963964,10.00819 16.7158067,10.00819 C17.3546274,10.1146601 17.993448,10.1146601 18.6322686,10.00819 Z M21.0810811,9.47583948 C24.4881245,10.00819 24.3816544,11.7117117 25.8722359,12.8828829 C24.3816544,13.9475839 24.4881245,15.6511057 21.1875512,16.1834562 C23.2104832,19.0581491 21.9328419,20.2293202 22.2522523,22.039312 C20.4422604,21.7199017 19.1646192,22.997543 16.5028665,21.0810811 C15.8640459,24.4881245 14.1605242,24.3816544 13.0958231,25.8722359 C12.031122,24.3816544 10.3276003,24.4881245 9.68877969,21.1875512 C6.92055692,23.2104832 5.74938575,21.9328419 3.83292383,22.2522523 C4.15233415,20.4422604 2.98116298,19.1646192 4.79115479,16.5028665 C1.49058149,15.8640459 1.49058149,14.1605242 0,13.0958231 C1.49058149,12.031122 1.49058149,10.3276003 4.68468468,9.68877969 C2.76822277,6.92055692 4.04586405,5.74938575 3.72645373,3.83292383 C5.53644554,4.15233415 6.70761671,2.98116298 9.47583948,4.79115479 C10.00819,1.49058149 11.7117117,1.49058149 12.8828829,0 C13.9475839,1.49058149 15.6511057,1.49058149 16.1834562,4.68468468 C19.0581491,2.76822277 20.2293202,4.04586405 22.039312,3.72645373 C21.7199017,5.53644554 22.997543,6.70761671 21.0810811,9.47583948 Z M16.2899263,5.64291564 C16.2899263,6.28173628 16.0769861,6.70761671 15.7575758,7.13349713 C15.6511057,7.77231777 15.6511057,8.41113841 15.7575758,9.04995905 C15.7575758,9.36936937 16.1834562,9.26289926 16.1834562,9.04995905 C16.0769861,7.98525799 16.0769861,6.92055692 16.6093366,5.96232596 C16.7158067,5.74938575 16.5028665,5.53644554 16.2899263,5.64291564 Z M14.9058149,6.81408681 C14.9058149,6.28173628 15.1187551,5.74938575 15.5446355,5.32350532 C15.4381654,5.21703522 15.1187551,5.21703522 15.1187551,5.42997543 C14.7993448,6.49467649 14.0540541,7.23996724 13.2022932,7.87878788 C12.989353,8.09172809 13.3087633,8.41113841 13.5217035,8.1981982 C14.0540541,7.77231777 14.4799345,7.34643735 14.9058149,6.81408681 Z M20.5487305,10.1146601 C20.1228501,10.5405405 19.5904996,10.7534808 18.951679,10.8599509 C18.5257985,11.1793612 18.0999181,11.7117117 17.6740377,12.1375921 C17.4610975,12.3505324 17.8869779,12.6699427 17.993448,12.4570025 C18.7387387,11.6052416 19.4840295,10.8599509 20.5487305,10.6470106 C20.7616708,10.5405405 20.7616708,10.2211302 20.5487305,10.1146601 Z M21.6134316,5.32350532 C21.6134316,5.004095 21.1875512,5.004095 21.1875512,5.21703522 C20.974611,6.6011466 20.01638,7.02702703 18.8452088,7.34643735 C18.6322686,7.45290745 18.7387387,7.87878788 18.951679,7.77231777 C20.3357903,7.45290745 21.4004914,6.81408681 21.6134316,5.32350532 Z M21.0810811,8.09172809 C21.2940213,7.87878788 21.0810811,7.55937756 20.7616708,7.66584767 C20.01638,8.1981982 18.6322686,8.62407862 17.6740377,8.62407862 C17.4610975,8.51760852 17.3546274,9.04995905 17.6740377,9.04995905 C18.6322686,9.15642916 20.2293202,8.62407862 21.0810811,8.09172809 Z M20.4422604,4.15233415 C20.7616708,4.15233415 20.7616708,4.57821458 20.5487305,4.57821458 C19.1646192,4.79115479 18.7387387,5.74938575 18.4193284,6.92055692 C18.3128583,7.13349713 17.8869779,7.02702703 17.993448,6.81408681 C18.3128583,5.42997543 18.951679,4.36527437 20.4422604,4.15233415 Z M17.6740377,4.68468468 C17.8869779,4.47174447 18.2063882,4.68468468 18.0999181,4.8976249 C17.5675676,5.74938575 17.1416871,7.13349713 17.1416871,8.09172809 C17.1416871,8.3046683 16.7158067,8.41113841 16.7158067,8.09172809 C16.6093366,7.13349713 17.1416871,5.53644554 17.6740377,4.68468468 Z M19.0581491,14.9058149 C19.5904996,14.9058149 20.1228501,15.1187551 20.5487305,15.5446355 C20.7616708,15.4381654 20.7616708,15.1187551 20.5487305,15.1187551 C19.4840295,14.7993448 18.7387387,14.0540541 17.993448,13.2022932 C17.8869779,12.989353 17.4610975,13.3087633 17.6740377,13.5217035 C18.0999181,14.0540541 18.5257985,14.4799345 19.0581491,14.9058149 Z M20.2293202,16.2899263 C19.6969697,16.2899263 19.1646192,16.0769861 18.7387387,15.7575758 C18.0999181,15.6511057 17.4610975,15.6511057 16.8222768,15.7575758 C16.6093366,15.7575758 16.6093366,16.1834562 16.9287469,16.1834562 C17.993448,16.0769861 19.0581491,16.0769861 20.01638,16.6093366 C20.2293202,16.7158067 20.4422604,16.5028665 20.2293202,16.2899263 Z M24.4881245,13.6281736 C24.7010647,13.5217035 24.4881245,13.0958231 24.1687142,13.3087633 C23.1040131,14.0540541 22.1457821,13.7346437 21.0810811,13.2022932 C20.8681409,12.989353 20.6552007,13.4152334 20.8681409,13.5217035 C22.1457821,14.2669943 23.2104832,14.5864046 24.4881245,13.6281736 Z M22.1457821,15.2252252 C22.4651925,15.2252252 22.4651925,14.7993448 22.2522523,14.7993448 C21.4004914,14.5864046 20.01638,13.9475839 19.3775594,13.2022932 C19.2710893,12.989353 18.8452088,13.3087633 19.0581491,13.5217035 C19.6969697,14.2669943 21.1875512,15.012285 22.1457821,15.2252252 Z M24.4881245,12.031122 C24.7010647,12.1375921 24.4881245,12.5634726 24.1687142,12.3505324 C23.1040131,11.6052416 22.1457821,11.9246519 21.0810811,12.4570025 C20.8681409,12.6699427 20.6552007,12.2440622 20.8681409,12.1375921 C22.1457821,11.3923014 23.2104832,11.0728911 24.4881245,12.031122 Z M22.1457821,10.4340704 C22.4651925,10.4340704 22.4651925,10.8599509 22.2522523,10.8599509 C21.4004914,11.0728911 20.01638,11.8181818 19.3775594,12.4570025 C19.2710893,12.6699427 18.8452088,12.3505324 19.0581491,12.1375921 C19.6969697,11.3923014 21.1875512,10.6470106 22.1457821,10.4340704 Z M15.8640459,18.6322686 C16.2899263,19.0581491 16.5028665,19.5904996 16.5028665,20.1228501 C16.7158067,20.2293202 16.9287469,20.01638 16.8222768,19.8034398 C16.1834562,18.8452088 16.2899263,17.7805078 16.3963964,16.7158067 C16.3963964,16.3963964 15.970516,16.3963964 15.8640459,16.7158067 C15.8640459,17.3546274 15.7575758,17.993448 15.8640459,18.6322686 Z M15.7575758,20.5487305 C15.3316953,20.1228501 15.1187551,19.5904996 15.1187551,18.951679 C14.6928747,18.5257985 14.2669943,18.0999181 13.7346437,17.6740377 C13.5217035,17.4610975 13.2022932,17.8869779 13.4152334,17.993448 C14.2669943,18.7387387 15.012285,19.4840295 15.3316953,20.5487305 C15.3316953,20.7616708 15.7575758,20.7616708 15.7575758,20.5487305 Z M20.5487305,21.6134316 C20.8681409,21.6134316 20.974611,21.1875512 20.6552007,21.1875512 C19.3775594,20.974611 18.8452088,20.01638 18.5257985,18.8452088 C18.5257985,18.6322686 18.0999181,18.7387387 18.0999181,18.951679 C18.5257985,20.3357903 19.0581491,21.4004914 20.5487305,21.6134316 Z M17.8869779,21.0810811 C17.993448,21.2940213 18.4193284,21.0810811 18.2063882,20.7616708 C17.7805078,20.01638 17.2481572,18.6322686 17.3546274,17.6740377 C17.3546274,17.4610975 16.9287469,17.3546274 16.9287469,17.6740377 C16.8222768,18.6322686 17.3546274,20.2293202 17.8869779,21.0810811 Z M21.7199017,20.4422604 C21.8263718,20.7616708 21.4004914,20.7616708 21.2940213,20.5487305 C21.0810811,19.1646192 20.2293202,18.7387387 19.0581491,18.4193284 C18.7387387,18.3128583 18.8452088,17.8869779 19.1646192,17.993448 C20.5487305,18.3128583 21.5069615,18.951679 21.7199017,20.4422604 Z M21.1875512,17.6740377 C21.5069615,17.8869779 21.1875512,18.2063882 20.974611,18.0999181 C20.2293202,17.5675676 18.7387387,17.1416871 17.8869779,17.1416871 C17.5675676,17.1416871 17.5675676,16.7158067 17.8869779,16.7158067 C18.8452088,16.6093366 20.3357903,17.1416871 21.1875512,17.6740377 Z M10.966421,19.0581491 C10.966421,19.5904996 10.7534808,20.1228501 10.4340704,20.5487305 C10.5405405,20.7616708 10.7534808,20.7616708 10.8599509,20.5487305 C11.0728911,19.4840295 11.8181818,18.7387387 12.6699427,17.993448 C12.8828829,17.8869779 12.6699427,17.4610975 12.4570025,17.6740377 C11.9246519,18.0999181 11.3923014,18.5257985 10.966421,19.0581491 Z M9.58230958,20.2293202 C9.58230958,19.6969697 9.7952498,19.1646192 10.2211302,18.7387387 C10.2211302,18.0999181 10.2211302,17.4610975 10.2211302,16.8222768 C10.1146601,16.6093366 9.68877969,16.6093366 9.68877969,16.9287469 C9.7952498,17.993448 9.9017199,19.0581491 9.26289926,20.01638 C9.15642916,20.2293202 9.36936937,20.4422604 9.58230958,20.2293202 Z M12.2440622,24.4881245 C12.4570025,24.7010647 12.7764128,24.4881245 12.5634726,24.1687142 C11.8181818,23.1040131 12.1375921,22.1457821 12.7764128,21.0810811 C12.8828829,20.8681409 12.4570025,20.6552007 12.3505324,20.8681409 C11.7117117,22.1457821 11.3923014,23.2104832 12.2440622,24.4881245 Z M10.6470106,22.1457821 C10.6470106,22.4651925 11.0728911,22.4651925 11.1793612,22.2522523 C11.2858313,21.4004914 12.031122,20.01638 12.6699427,19.3775594 C12.8828829,19.2710893 12.6699427,18.8452088 12.4570025,19.0581491 C11.6052416,19.6969697 10.8599509,21.1875512 10.6470106,22.1457821 Z M13.9475839,24.4881245 C13.7346437,24.7010647 13.4152334,24.4881245 13.5217035,24.1687142 C14.3734644,23.1040131 13.9475839,22.1457821 13.4152334,21.0810811 C13.3087633,20.8681409 13.6281736,20.6552007 13.8411138,20.8681409 C14.4799345,22.1457821 14.7993448,23.2104832 13.9475839,24.4881245 Z M15.4381654,22.1457821 C15.5446355,22.4651925 15.1187551,22.4651925 15.012285,22.2522523 C14.7993448,21.4004914 14.1605242,20.01638 13.4152334,19.3775594 C13.2022932,19.2710893 13.5217035,18.8452088 13.7346437,19.0581491 C14.4799345,19.6969697 15.2252252,21.1875512 15.4381654,22.1457821 Z M7.23996724,15.8640459 C6.81408681,16.2899263 6.38820639,16.5028665 5.74938575,16.5028665 C5.74938575,16.7158067 5.96232596,16.9287469 6.06879607,16.8222768 C7.02702703,16.1834562 8.09172809,16.2899263 9.15642916,16.3963964 C9.47583948,16.3963964 9.47583948,15.970516 9.26289926,15.8640459 C8.51760852,15.8640459 7.87878788,15.7575758 7.23996724,15.8640459 Z M5.42997543,15.7575758 C5.85585586,15.3316953 6.38820639,15.1187551 6.92055692,15.1187551 C7.45290745,14.6928747 7.87878788,14.2669943 8.1981982,13.7346437 C8.41113841,13.5217035 8.09172809,13.2022932 7.87878788,13.4152334 C7.23996724,14.2669943 6.49467649,15.012285 5.42997543,15.3316953 C5.11056511,15.3316953 5.21703522,15.7575758 5.42997543,15.7575758 Z M4.36527437,20.5487305 C4.25880426,20.8681409 4.68468468,20.974611 4.79115479,20.6552007 C5.004095,19.3775594 5.85585586,18.8452088 7.02702703,18.5257985 C7.34643735,18.5257985 7.23996724,18.0999181 6.92055692,18.0999181 C5.53644554,18.5257985 4.57821458,19.0581491 4.36527437,20.5487305 Z M4.8976249,17.8869779 C4.57821458,17.993448 4.8976249,18.4193284 5.11056511,18.2063882 C5.85585586,17.7805078 7.34643735,17.2481572 8.1981982,17.3546274 C8.51760852,17.3546274 8.51760852,16.9287469 8.1981982,16.9287469 C7.23996724,16.8222768 5.74938575,17.3546274 4.8976249,17.8869779 Z M5.42997543,21.7199017 C5.21703522,21.8263718 5.11056511,21.4004914 5.42997543,21.2940213 C6.70761671,21.0810811 7.23996724,20.2293202 7.55937756,19.0581491 C7.55937756,18.7387387 7.98525799,18.8452088 7.98525799,19.1646192 C7.55937756,20.5487305 7.02702703,21.5069615 5.42997543,21.7199017 Z M8.1981982,21.1875512 C8.09172809,21.5069615 7.66584767,21.1875512 7.87878788,20.974611 C8.3046683,20.2293202 8.83701884,18.7387387 8.73054873,17.8869779 C8.73054873,17.5675676 9.15642916,17.5675676 9.15642916,17.8869779 C9.26289926,18.8452088 8.73054873,20.3357903 8.1981982,21.1875512 Z M6.81408681,10.966421 C6.28173628,10.966421 5.74938575,10.7534808 5.32350532,10.4340704 C5.21703522,10.5405405 5.21703522,10.7534808 5.42997543,10.8599509 C6.49467649,11.0728911 7.23996724,11.8181818 7.87878788,12.6699427 C8.09172809,12.8828829 8.41113841,12.6699427 8.1981982,12.4570025 C7.77231777,11.9246519 7.34643735,11.3923014 6.81408681,10.966421 Z M5.64291564,9.58230958 C6.28173628,9.58230958 6.70761671,9.7952498 7.13349713,10.2211302 C7.77231777,10.2211302 8.41113841,10.2211302 9.04995905,10.2211302 C9.36936937,10.1146601 9.26289926,9.68877969 9.04995905,9.68877969 C7.98525799,9.7952498 6.92055692,9.9017199 5.96232596,9.26289926 C5.74938575,9.15642916 5.53644554,9.36936937 5.64291564,9.58230958 Z M1.49058149,12.2440622 C1.17117117,12.4570025 1.49058149,12.7764128 1.7035217,12.5634726 C2.76822277,11.8181818 3.72645373,12.1375921 4.79115479,12.7764128 C5.11056511,12.8828829 5.32350532,12.4570025 5.004095,12.3505324 C3.83292383,11.7117117 2.66175266,11.3923014 1.49058149,12.2440622 Z M3.72645373,10.6470106 C3.51351351,10.6470106 3.40704341,11.0728911 3.72645373,11.1793612 C4.57821458,11.2858313 5.96232596,12.031122 6.49467649,12.6699427 C6.70761671,12.8828829 7.02702703,12.6699427 6.81408681,12.4570025 C6.17526618,11.6052416 4.79115479,10.8599509 3.72645373,10.6470106 Z M1.49058149,13.9475839 C1.17117117,13.7346437 1.49058149,13.4152334 1.7035217,13.5217035 C2.76822277,14.3734644 3.72645373,13.9475839 4.79115479,13.4152334 C5.11056511,13.3087633 5.32350532,13.6281736 5.004095,13.8411138 C3.83292383,14.4799345 2.66175266,14.7993448 1.49058149,13.9475839 Z M3.72645373,15.4381654 C3.51351351,15.5446355 3.40704341,15.1187551 3.72645373,15.012285 C4.57821458,14.7993448 5.96232596,14.1605242 6.49467649,13.4152334 C6.70761671,13.2022932 7.02702703,13.5217035 6.81408681,13.7346437 C6.17526618,14.4799345 4.79115479,15.2252252 3.72645373,15.4381654 Z M10.00819,7.23996724 C9.68877969,6.81408681 9.36936937,6.38820639 9.36936937,5.74938575 C9.15642916,5.74938575 8.94348894,5.96232596 9.15642916,6.06879607 C9.68877969,7.02702703 9.68877969,8.09172809 9.58230958,9.15642916 C9.58230958,9.47583948 10.00819,9.47583948 10.00819,9.26289926 C10.1146601,8.51760852 10.1146601,7.87878788 10.00819,7.23996724 Z M10.1146601,5.42997543 C10.5405405,5.85585586 10.7534808,6.38820639 10.8599509,6.92055692 C11.1793612,7.45290745 11.7117117,7.87878788 12.1375921,8.1981982 C12.3505324,8.41113841 12.6699427,8.09172809 12.4570025,7.87878788 C11.6052416,7.23996724 10.8599509,6.49467649 10.6470106,5.42997543 C10.5405405,5.11056511 10.2211302,5.21703522 10.1146601,5.42997543 Z M5.32350532,4.36527437 C5.004095,4.25880426 5.004095,4.68468468 5.21703522,4.79115479 C6.6011466,5.004095 7.02702703,5.85585586 7.34643735,7.02702703 C7.45290745,7.34643735 7.87878788,7.23996724 7.77231777,6.92055692 C7.34643735,5.53644554 6.81408681,4.57821458 5.32350532,4.36527437 Z M8.09172809,4.8976249 C7.87878788,4.57821458 7.55937756,4.8976249 7.66584767,5.11056511 C8.1981982,5.85585586 8.62407862,7.34643735 8.62407862,8.1981982 C8.51760852,8.51760852 9.04995905,8.51760852 9.04995905,8.1981982 C9.15642916,7.23996724 8.62407862,5.74938575 8.09172809,4.8976249 Z M4.15233415,5.42997543 C4.15233415,5.21703522 4.57821458,5.11056511 4.57821458,5.42997543 C4.79115479,6.70761671 5.74938575,7.23996724 6.92055692,7.55937756 C7.13349713,7.55937756 7.02702703,7.98525799 6.81408681,7.98525799 C5.42997543,7.55937756 4.36527437,7.02702703 4.15233415,5.42997543 Z M4.68468468,8.1981982 C4.47174447,8.09172809 4.68468468,7.66584767 4.8976249,7.87878788 C5.74938575,8.3046683 7.13349713,8.83701884 8.09172809,8.73054873 C8.3046683,8.73054873 8.41113841,9.15642916 8.09172809,9.15642916 C7.13349713,9.26289926 5.53644554,8.73054873 4.68468468,8.1981982 Z M13.6281736,1.49058149 C13.5217035,1.17117117 13.0958231,1.49058149 13.3087633,1.7035217 C14.0540541,2.76822277 13.7346437,3.72645373 13.2022932,4.79115479 C12.989353,5.11056511 13.4152334,5.32350532 13.5217035,5.004095 C14.2669943,3.83292383 14.5864046,2.66175266 13.6281736,1.49058149 Z M15.2252252,3.72645373 C15.2252252,3.51351351 14.7993448,3.40704341 14.7993448,3.72645373 C14.5864046,4.57821458 13.9475839,5.96232596 13.2022932,6.49467649 C12.989353,6.70761671 13.3087633,7.02702703 13.5217035,6.81408681 C14.2669943,6.17526618 15.012285,4.79115479 15.2252252,3.72645373 Z M12.031122,1.49058149 C12.1375921,1.17117117 12.5634726,1.49058149 12.3505324,1.7035217 C11.6052416,2.76822277 11.9246519,3.72645373 12.4570025,4.79115479 C12.6699427,5.11056511 12.2440622,5.32350532 12.1375921,5.004095 C11.3923014,3.83292383 11.0728911,2.66175266 12.031122,1.49058149 Z M10.4340704,3.72645373 C10.4340704,3.51351351 10.8599509,3.40704341 10.8599509,3.72645373 C11.0728911,4.57821458 11.8181818,5.96232596 12.4570025,6.49467649 C12.6699427,6.70761671 12.3505324,7.02702703 12.1375921,6.81408681 C11.3923014,6.17526618 10.6470106,4.79115479 10.4340704,3.72645373 Z" id="Shape"></path>
                    <circle id="Oval" cx="12.989353" cy="12.989353" r="2.76822277"></circle>
                </g>
            </g>
        </g>
    </g>
</svg>